<?xml version="1.0" standalone="no"?>
<!DOCTYPE svg PUBLIC "-//W3C//DTD SVG 20010904//EN"
 "http://www.w3.org/TR/2001/REC-SVG-20010904/DTD/svg10.dtd">
<svg version="1.0" xmlns="http://www.w3.org/2000/svg"
 width="509.000000pt" height="509.000000pt" viewBox="0 0 509.000000 509.000000"
 preserveAspectRatio="xMidYMid meet">
<metadata>
Created by potrace 1.11, written by Peter Selinger 2001-2013
</metadata>
<g transform="translate(0.000000,509.000000) scale(0.100000,-0.100000)"
fill="#000000" stroke="none">
<path d="M2627 4580 c-87 -76 -87 -252 -1 -349 97 -110 99 -111 150 -111 105
0 154 66 154 210 0 103 -22 160 -72 189 -18 11 -47 34 -64 52 -25 25 -42 33
-81 36 -45 5 -53 2 -86 -27z"/>
<path d="M190 2991 l0 -1569 29 -7 c22 -5 31 -14 36 -36 10 -45 39 -59 126
-59 61 0 82 4 100 19 l24 19 3 668 c2 468 6 671 13 681 9 11 133 13 658 13
416 0 659 4 683 10 48 14 58 33 58 110 0 84 -20 120 -66 120 -17 0 -23 8 -28
35 l-7 35 -654 0 -655 0 0 605 c0 587 1 605 19 615 13 7 258 10 725 10 680 0
707 1 725 19 36 36 39 162 4 197 -9 8 -28 18 -44 21 -24 4 -29 11 -29 34 l0
29 -860 0 -860 0 0 -1569z"/>
<path d="M3920 4267 c-6 -29 -30 -148 -54 -263 l-42 -209 -55 -17 c-30 -9
-107 -31 -171 -49 l-118 -31 0 -64 0 -64 30 0 c24 0 30 -4 30 -21 0 -59 46
-79 187 -79 l91 0 5 -787 c4 -701 6 -796 21 -862 37 -156 83 -241 202 -370
121 -130 268 -178 518 -168 157 6 259 27 293 59 19 18 23 32 23 83 0 73 -15
97 -58 99 -30 1 -32 3 -32 40 0 38 0 38 -32 32 -159 -33 -415 -34 -478 -2 -66
33 -112 138 -130 293 -13 114 -14 1522 0 1557 l9 25 310 3 c305 3 311 3 333
25 18 19 22 33 22 89 0 58 -3 69 -23 85 -13 11 -34 19 -47 19 -21 0 -24 5 -24
35 l0 35 -295 0 -295 0 0 228 c0 251 0 252 -62 267 -23 6 -28 13 -28 36 0 29
-1 29 -59 29 l-60 0 -11 -53z"/>
<path d="M2586 3725 c-110 -45 -210 -167 -260 -316 -103 -308 -95 -914 19
-1367 42 -166 102 -351 166 -508 l49 -122 -21 -48 c-11 -27 -48 -96 -82 -154
-50 -85 -83 -126 -174 -216 -62 -61 -113 -117 -113 -125 0 -23 133 -289 145
-289 6 0 19 -13 28 -29 36 -61 79 -48 145 42 78 106 181 264 228 350 26 48 50
87 54 87 3 0 29 -48 59 -107 99 -200 244 -403 287 -403 31 0 45 24 88 144 51
140 49 155 -27 262 -106 148 -237 373 -237 407 0 10 36 125 80 255 156 466
199 689 207 1079 11 524 -42 761 -204 914 -81 77 -180 145 -231 159 -63 17
-142 12 -206 -15z m246 -278 c17 -27 48 -137 63 -222 62 -360 33 -830 -74
-1210 -42 -148 -80 -259 -87 -252 -2 2 -24 84 -49 181 -139 548 -152 1047 -35
1368 43 117 86 163 145 153 16 -3 33 -11 37 -18z"/>
</g>
</svg>
