<svg xmlns="http://www.w3.org/2000/svg" width="612" height="147.587" viewBox="0 322.207 612 147.587" enable-background="new 0 322.207 612 147.587"><path fill="#343333" d="M220.602 374.356h-27.882v-13.616c.12-15.758 4.314-21.612 8.928-24.616 4.757-3.112 12.003-3.396 18.954-3.332 2.926 0 5.287-2.367 5.287-5.298 0-2.916-2.36-5.287-5.287-5.287-6.918.056-16.259-.236-24.614 4.971-8.498 5.315-13.963 16.085-13.853 33.564v13.616h-10.895c-2.929 0-5.304 2.376-5.304 5.287 0 2.918 2.375 5.296 5.304 5.296h10.895v79.337c0 2.914 2.367 5.304 5.296 5.304 2.931 0 5.298-2.39 5.298-5.304-.002-50.733-.012-54.229-.012-79.337h27.882c2.921 0 5.304-2.378 5.304-5.296.002-2.914-2.381-5.289-5.301-5.289zm124.68 84.649v-.024c-8.927.079-16.121-.457-20.205-3.531-4.042-2.874-7.632-9.156-7.679-25.167-.008-22.773-.013-33.303-.013-45.201h27.893c2.921 0 5.296-2.374 5.296-5.296 0-2.92-2.375-5.284-5.296-5.284h-27.893c0-10.543.013-24.152.013-46.999 0-2.925-2.381-5.296-5.304-5.296-2.925 0-5.274 2.372-5.274 5.296v46.999h-10.909c-2.909 0-5.284 2.365-5.284 5.284 0 2.922 2.375 5.296 5.284 5.296h10.909v45.201c-.062 17.233 4.025 27.948 12.09 33.771 8.045 5.607 17.447 5.453 26.372 5.527 2.919 0 5.289-2.372 5.289-5.304 0-2.924-2.372-5.272-5.289-5.272zm243.421.011v-.024c-11.422.079-18.428-1.167-21.804-4.298-3.479-2.875-6.104-9.533-6.085-24.187v-45.426h27.885c2.936 0 5.288-2.374 5.288-5.296 0-2.92-2.353-5.284-5.288-5.284h-27.887v-47.008c0-2.925-2.357-5.282-5.279-5.282-2.928 0-5.301 2.357-5.301 5.282v47.008h-10.901c-2.929 0-5.302 2.365-5.302 5.284 0 2.922 2.373 5.296 5.302 5.296h10.901v45.426c.032 15.474 2.428 25.703 9.744 32.183 7.42 6.255 17.002 6.808 28.726 6.89 2.918 0 5.284-2.372 5.284-5.287.002-2.929-2.366-5.277-5.283-5.277zM252.683 464.276v-84.627c0-2.918 2.375-5.293 5.282-5.293 2.923 0 5.298 2.375 5.298 5.293v84.627c0 2.913-2.375 5.304-5.298 5.304-2.907 0-5.282-2.391-5.282-5.304zM498.351 464.276v-84.627c0-2.918 2.349-5.293 5.269-5.293 2.934 0 5.301 2.375 5.301 5.293v84.627c0 2.913-2.367 5.304-5.301 5.304-2.921 0-5.269-2.391-5.269-5.304zM425.02 374.002c-15.092.009-28.546 7.002-37.322 17.909v-64.409c0-2.925-2.372-5.291-5.289-5.291-2.921 0-5.293 2.367-5.293 5.291v97.591c0 .375.138.706.218 1.062 2.154 24.459 22.657 43.638 47.688 43.638 26.448 0 47.882-21.429 47.882-47.884-.004-26.457-21.437-47.895-47.884-47.907zm0 85.209c-20.616-.04-37.294-16.69-37.322-37.301.028-20.627 16.707-37.282 37.322-37.318 20.606.035 37.266 16.69 37.299 37.318-.035 20.61-16.695 37.26-37.299 37.301z"/><path fill="#4AC1BF" d="M250.495 353.12c-1.974-1.969-3.098-4.704-3.098-7.482 0-2.789 1.125-5.512 3.098-7.482 1.962-1.973 4.691-3.098 7.474-3.098 2.786 0 5.51 1.125 7.48 3.098 1.975 1.972 3.1 4.694 3.1 7.482 0 2.779-1.125 5.515-3.1 7.482-1.972 1.964-4.694 3.103-7.48 3.103-2.781-.001-5.512-1.14-7.474-3.103zM496.146 353.12c-1.974-1.969-3.103-4.704-3.103-7.482 0-2.789 1.129-5.512 3.103-7.482 1.974-1.973 4.696-3.098 7.487-3.098 2.781 0 5.5 1.125 7.478 3.098 1.962 1.972 3.093 4.694 3.093 7.482 0 2.779-1.131 5.515-3.093 7.482-1.978 1.964-4.696 3.103-7.478 3.103-2.791-.001-5.515-1.14-7.487-3.103zM52.971 453.76c-1.601-1.594-2.498-3.796-2.498-6.049 0-2.249.897-4.447 2.498-6.038 1.596-1.594 3.794-2.506 6.048-2.506 2.25 0 4.453.912 6.046 2.506 1.593 1.591 2.5 3.789 2.5 6.038 0 2.253-.907 4.455-2.5 6.049-1.593 1.586-3.796 2.51-6.046 2.51-2.252-.001-4.451-.924-6.048-2.51z"/><path fill="#343333" d="M52.971 403.285c-1.591-1.598-2.498-3.803-2.498-6.048 0-2.255.907-4.455 2.498-6.049 1.591-1.588 3.794-2.5 6.042-2.5 2.257 0 4.45.912 6.053 2.5 1.593 1.594 2.5 3.794 2.5 6.049 0 2.245-.907 4.45-2.5 6.048-1.603 1.587-3.796 2.498-6.053 2.498-2.246 0-4.45-.911-6.042-2.498z"/><path fill="#4AC1BF" d="M52.974 352.81c-1.584-1.601-2.498-3.796-2.498-6.042 0-2.259.914-4.46 2.498-6.058 1.589-1.586 3.792-2.486 6.042-2.486 2.254 0 4.458.9 6.046 2.486 1.596 1.598 2.505 3.799 2.505 6.058 0 2.245-.91 4.441-2.505 6.042-1.588 1.586-3.792 2.498-6.046 2.498-2.249 0-4.453-.912-6.042-2.498zM52.75 377.808c-1.535-1.645-2.355-3.883-2.264-6.124.082-2.269 1.074-4.426 2.729-5.959 1.655-1.527 3.88-2.341 6.14-2.254 2.238.082 4.413 1.071 5.931 2.724 1.528 1.662 2.373 3.882 2.28 6.149-.086 2.243-1.089 4.404-2.742 5.938-1.649 1.525-3.887 2.355-6.132 2.274-2.257-.088-4.415-1.098-5.942-2.748zM52.974 428.522c-1.586-1.599-2.5-3.797-2.5-6.049 0-2.255.915-4.453 2.5-6.046 1.593-1.591 3.792-2.503 6.046-2.503 2.25 0 4.453.912 6.042 2.503 1.593 1.593 2.505 3.791 2.505 6.046 0 2.252-.912 4.45-2.505 6.049-1.588 1.579-3.792 2.498-6.042 2.498-2.253.001-4.452-.917-6.046-2.498z"/><path fill="#343333" d="M78.211 403.285c-1.586-1.598-2.503-3.803-2.503-6.048 0-2.255.917-4.455 2.503-6.049 1.593-1.588 3.794-2.5 6.046-2.5 2.25 0 4.443.912 6.049 2.5 1.591 1.594 2.503 3.794 2.503 6.049 0 2.245-.912 4.45-2.503 6.048-1.605 1.587-3.799 2.498-6.049 2.498-2.252 0-4.452-.911-6.046-2.498zM78.211 378.044c-1.586-1.586-2.496-3.792-2.496-6.036 0-2.262.909-4.453 2.496-6.056 1.593-1.582 3.804-2.486 6.046-2.486 2.25 0 4.451.905 6.049 2.486 1.591 1.603 2.503 3.794 2.503 6.056 0 2.245-.912 4.45-2.503 6.036-1.598 1.589-3.799 2.515-6.049 2.515-2.242 0-4.452-.926-6.046-2.515zM78.211 428.522c-1.591-1.599-2.503-3.797-2.503-6.049 0-2.255.912-4.453 2.503-6.046 1.593-1.591 3.794-2.503 6.046-2.503 2.257 0 4.455.912 6.049 2.503 1.591 1.593 2.503 3.791 2.503 6.046 0 2.252-.912 4.45-2.503 6.049-1.594 1.579-3.792 2.498-6.049 2.498-2.252.001-4.452-.917-6.046-2.498zM103.448 403.285c-1.591-1.598-2.499-3.803-2.499-6.048 0-2.255.907-4.455 2.499-6.049 1.593-1.588 3.796-2.5 6.046-2.5 2.252 0 4.455.912 6.048 2.5 1.586 1.594 2.491 3.794 2.491 6.049 0 2.245-.905 4.45-2.491 6.048-1.593 1.587-3.796 2.498-6.048 2.498-2.25 0-4.452-.911-6.046-2.498zM27.73 403.285c-1.589-1.598-2.5-3.803-2.5-6.048 0-2.255.912-4.455 2.5-6.049 1.593-1.588 3.796-2.5 6.061-2.5 2.238 0 4.438.912 6.036 2.5 1.584 1.594 2.5 3.794 2.5 6.049 0 2.245-.917 4.45-2.5 6.048-1.598 1.587-3.798 2.498-6.036 2.498-2.265 0-4.468-.911-6.061-2.498z"/><path fill="#4AC1BF" d="M27.739 378.044c-1.603-1.586-2.51-3.792-2.51-6.036 0-2.262.907-4.453 2.51-6.056 1.584-1.582 3.782-2.486 6.042-2.486 2.248 0 4.448.905 6.043 2.486 1.586 1.603 2.503 3.794 2.503 6.056 0 2.245-.917 4.45-2.503 6.036-1.596 1.589-3.796 2.515-6.043 2.515-2.259 0-4.458-.926-6.042-2.515zM27.73 428.522c-1.589-1.599-2.489-3.797-2.489-6.049 0-2.255.9-4.453 2.489-6.046 1.593-1.591 3.792-2.503 6.053-2.503 2.25 0 4.455.912 6.046 2.503 1.594 1.593 2.505 3.791 2.505 6.046 0 2.252-.912 4.45-2.505 6.049-1.591 1.579-3.796 2.498-6.046 2.498-2.261.001-4.46-.917-6.053-2.498z"/><path fill="#343333" d="M2.5 403.285c-1.598-1.598-2.5-3.803-2.5-6.048 0-2.255.902-4.455 2.5-6.049 1.596-1.588 3.796-2.5 6.046-2.5 2.248 0 4.455.912 6.044 2.5 1.588 1.594 2.498 3.794 2.498 6.049 0 2.245-.91 4.45-2.498 6.048-1.589 1.587-3.796 2.498-6.044 2.498-2.249 0-4.45-.911-6.046-2.498zM606.771 469.58c-.729 0-1.411-.136-2.044-.41-.632-.275-1.183-.647-1.649-1.116-.465-.472-.832-1.02-1.102-1.649-.268-.628-.403-1.299-.403-2.009v-.027c0-.711.136-1.38.403-2.009.27-.628.64-1.181 1.111-1.657.469-.475 1.023-.851 1.661-1.129s1.322-.418 2.054-.418c.728 0 1.41.136 2.043.411.632.274 1.183.644 1.649 1.115.465.472.832 1.021 1.102 1.647.268.63.403 1.299.403 2.011v.028c0 .71-.136 1.38-.403 2.008-.27.628-.64 1.181-1.108 1.655-.472.475-1.026.853-1.664 1.131-.639.28-1.321.418-2.053.418zm0-.445c.672 0 1.298-.128 1.879-.382.58-.255 1.084-.597 1.512-1.03.426-.431.762-.935 1-1.512.241-.575.361-1.19.361-1.842v-.027c0-.654-.12-1.269-.361-1.845-.238-.576-.569-1.077-.993-1.505-.422-.426-.921-.767-1.497-1.015-.574-.251-1.2-.374-1.871-.374-.682 0-1.31.129-1.886.381-.576.256-1.077.598-1.505 1.028-.428.434-.762.938-1.001 1.512-.241.577-.36 1.19-.36 1.845v.027c0 .654.119 1.269.36 1.845.239.574.57 1.074.994 1.504.422.427.921.765 1.497 1.016.576.248 1.202.374 1.871.374zm-2.029-7.588h2.39c.335 0 .64.049.915.15.273.101.496.238.67.41.134.126.239.274.317.447.076.172.115.368.115.591v.027c0 .431-.13.777-.389 1.035-.259.261-.591.438-.994.534l1.657 2.145h-.979l-1.54-2.017h-1.368v2.017h-.791v-5.34h-.003zm2.319 2.619c.374 0 .679-.081.914-.246.236-.162.354-.398.354-.705v-.027c0-.278-.107-.502-.323-.671-.216-.167-.519-.251-.9-.251h-1.57v1.9h1.525z"/></svg>